<mxfile host="app.diagrams.net" modified="2022-08-06T19:46:36.518Z" agent="5.0 (Windows NT 10.0; Win64; x64) AppleWebKit/537.36 (KHTML, like Gecko) Chrome/104.0.0.0 Safari/537.36" etag="hldIYKbgXPsb2Kaf9VVX" version="20.2.3" type="github">
  <diagram id="C5RBs43oDa-KdzZeNtuy" name="Page-1">
    <mxGraphModel dx="1422" dy="793" grid="1" gridSize="10" guides="1" tooltips="1" connect="1" arrows="1" fold="1" page="1" pageScale="1" pageWidth="827" pageHeight="1169" math="0" shadow="0">
      <root>
        <mxCell id="WIyWlLk6GJQsqaUBKTNV-0" />
        <mxCell id="WIyWlLk6GJQsqaUBKTNV-1" parent="WIyWlLk6GJQsqaUBKTNV-0" />
        <mxCell id="MVGdtqlllUrGUKuWpan5-0" style="edgeStyle=orthogonalEdgeStyle;rounded=0;orthogonalLoop=1;jettySize=auto;html=1;" edge="1" parent="WIyWlLk6GJQsqaUBKTNV-1" source="MVGdtqlllUrGUKuWpan5-1" target="MVGdtqlllUrGUKuWpan5-3">
          <mxGeometry relative="1" as="geometry" />
        </mxCell>
        <mxCell id="MVGdtqlllUrGUKuWpan5-1" value="INICIO" style="rounded=1;whiteSpace=wrap;html=1;arcSize=50;" vertex="1" parent="WIyWlLk6GJQsqaUBKTNV-1">
          <mxGeometry x="344" y="50" width="140" height="60" as="geometry" />
        </mxCell>
        <mxCell id="MVGdtqlllUrGUKuWpan5-2" style="edgeStyle=orthogonalEdgeStyle;rounded=0;orthogonalLoop=1;jettySize=auto;html=1;" edge="1" parent="WIyWlLk6GJQsqaUBKTNV-1" source="MVGdtqlllUrGUKuWpan5-3" target="MVGdtqlllUrGUKuWpan5-5">
          <mxGeometry relative="1" as="geometry" />
        </mxCell>
        <mxCell id="MVGdtqlllUrGUKuWpan5-3" value="int i&lt;br&gt;int j&lt;br&gt;char m[5][5]" style="rounded=0;whiteSpace=wrap;html=1;" vertex="1" parent="WIyWlLk6GJQsqaUBKTNV-1">
          <mxGeometry x="354" y="160" width="120" height="60" as="geometry" />
        </mxCell>
        <mxCell id="MVGdtqlllUrGUKuWpan5-4" style="edgeStyle=orthogonalEdgeStyle;rounded=0;orthogonalLoop=1;jettySize=auto;html=1;entryX=0.5;entryY=0;entryDx=0;entryDy=0;" edge="1" parent="WIyWlLk6GJQsqaUBKTNV-1" source="MVGdtqlllUrGUKuWpan5-5" target="MVGdtqlllUrGUKuWpan5-7">
          <mxGeometry relative="1" as="geometry" />
        </mxCell>
        <mxCell id="MVGdtqlllUrGUKuWpan5-5" value="i = 0&lt;br&gt;j = 0" style="rounded=0;whiteSpace=wrap;html=1;" vertex="1" parent="WIyWlLk6GJQsqaUBKTNV-1">
          <mxGeometry x="354" y="280" width="120" height="60" as="geometry" />
        </mxCell>
        <mxCell id="MVGdtqlllUrGUKuWpan5-6" style="edgeStyle=orthogonalEdgeStyle;rounded=0;orthogonalLoop=1;jettySize=auto;html=1;" edge="1" parent="WIyWlLk6GJQsqaUBKTNV-1" source="MVGdtqlllUrGUKuWpan5-7" target="MVGdtqlllUrGUKuWpan5-10">
          <mxGeometry relative="1" as="geometry" />
        </mxCell>
        <mxCell id="MVGdtqlllUrGUKuWpan5-7" value="" style="ellipse;whiteSpace=wrap;html=1;aspect=fixed;" vertex="1" parent="WIyWlLk6GJQsqaUBKTNV-1">
          <mxGeometry x="399" y="370" width="30" height="30" as="geometry" />
        </mxCell>
        <mxCell id="MVGdtqlllUrGUKuWpan5-8" value="V" style="edgeStyle=orthogonalEdgeStyle;rounded=0;orthogonalLoop=1;jettySize=auto;html=1;" edge="1" parent="WIyWlLk6GJQsqaUBKTNV-1" source="MVGdtqlllUrGUKuWpan5-10" target="MVGdtqlllUrGUKuWpan5-12">
          <mxGeometry relative="1" as="geometry" />
        </mxCell>
        <mxCell id="MVGdtqlllUrGUKuWpan5-9" value="F" style="edgeStyle=orthogonalEdgeStyle;rounded=0;orthogonalLoop=1;jettySize=auto;html=1;entryX=0.5;entryY=0;entryDx=0;entryDy=0;" edge="1" parent="WIyWlLk6GJQsqaUBKTNV-1" source="MVGdtqlllUrGUKuWpan5-10">
          <mxGeometry relative="1" as="geometry">
            <Array as="points">
              <mxPoint x="340" y="480" />
              <mxPoint x="340" y="690" />
              <mxPoint x="414" y="690" />
            </Array>
            <mxPoint x="413.9999999999998" y="740" as="targetPoint" />
          </mxGeometry>
        </mxCell>
        <mxCell id="MVGdtqlllUrGUKuWpan5-10" value="i&amp;lt;5" style="rhombus;whiteSpace=wrap;html=1;rounded=0;" vertex="1" parent="WIyWlLk6GJQsqaUBKTNV-1">
          <mxGeometry x="374" y="440" width="80" height="80" as="geometry" />
        </mxCell>
        <mxCell id="MVGdtqlllUrGUKuWpan5-11" style="edgeStyle=orthogonalEdgeStyle;rounded=0;orthogonalLoop=1;jettySize=auto;html=1;entryX=0.5;entryY=0;entryDx=0;entryDy=0;" edge="1" parent="WIyWlLk6GJQsqaUBKTNV-1" source="MVGdtqlllUrGUKuWpan5-12" target="MVGdtqlllUrGUKuWpan5-14">
          <mxGeometry relative="1" as="geometry" />
        </mxCell>
        <mxCell id="MVGdtqlllUrGUKuWpan5-12" value="j=0" style="rounded=1;whiteSpace=wrap;html=1;" vertex="1" parent="WIyWlLk6GJQsqaUBKTNV-1">
          <mxGeometry x="500" y="450" width="120" height="60" as="geometry" />
        </mxCell>
        <mxCell id="MVGdtqlllUrGUKuWpan5-13" style="edgeStyle=orthogonalEdgeStyle;rounded=0;orthogonalLoop=1;jettySize=auto;html=1;entryX=0.5;entryY=0;entryDx=0;entryDy=0;" edge="1" parent="WIyWlLk6GJQsqaUBKTNV-1" source="MVGdtqlllUrGUKuWpan5-14" target="MVGdtqlllUrGUKuWpan5-17">
          <mxGeometry relative="1" as="geometry" />
        </mxCell>
        <mxCell id="MVGdtqlllUrGUKuWpan5-14" value="" style="ellipse;whiteSpace=wrap;html=1;aspect=fixed;" vertex="1" parent="WIyWlLk6GJQsqaUBKTNV-1">
          <mxGeometry x="537.5" y="540" width="45" height="45" as="geometry" />
        </mxCell>
        <mxCell id="MVGdtqlllUrGUKuWpan5-15" value="F" style="edgeStyle=orthogonalEdgeStyle;rounded=0;orthogonalLoop=1;jettySize=auto;html=1;entryX=0.5;entryY=1;entryDx=0;entryDy=0;" edge="1" parent="WIyWlLk6GJQsqaUBKTNV-1" source="MVGdtqlllUrGUKuWpan5-17" target="MVGdtqlllUrGUKuWpan5-21">
          <mxGeometry relative="1" as="geometry" />
        </mxCell>
        <mxCell id="MVGdtqlllUrGUKuWpan5-16" value="V" style="edgeStyle=orthogonalEdgeStyle;rounded=0;orthogonalLoop=1;jettySize=auto;html=1;entryX=0;entryY=0.5;entryDx=0;entryDy=0;" edge="1" parent="WIyWlLk6GJQsqaUBKTNV-1" source="MVGdtqlllUrGUKuWpan5-17" target="MVGdtqlllUrGUKuWpan5-23">
          <mxGeometry relative="1" as="geometry" />
        </mxCell>
        <mxCell id="MVGdtqlllUrGUKuWpan5-17" value="j&amp;lt;5" style="rhombus;whiteSpace=wrap;html=1;rounded=0;" vertex="1" parent="WIyWlLk6GJQsqaUBKTNV-1">
          <mxGeometry x="520" y="610" width="80" height="80" as="geometry" />
        </mxCell>
        <mxCell id="MVGdtqlllUrGUKuWpan5-18" style="edgeStyle=orthogonalEdgeStyle;rounded=0;orthogonalLoop=1;jettySize=auto;html=1;entryX=1;entryY=0.5;entryDx=0;entryDy=0;" edge="1" parent="WIyWlLk6GJQsqaUBKTNV-1" source="MVGdtqlllUrGUKuWpan5-19" target="MVGdtqlllUrGUKuWpan5-14">
          <mxGeometry relative="1" as="geometry" />
        </mxCell>
        <mxCell id="MVGdtqlllUrGUKuWpan5-19" value="j++" style="rounded=0;whiteSpace=wrap;html=1;" vertex="1" parent="WIyWlLk6GJQsqaUBKTNV-1">
          <mxGeometry x="680" y="532.5" width="120" height="60" as="geometry" />
        </mxCell>
        <mxCell id="MVGdtqlllUrGUKuWpan5-20" style="edgeStyle=orthogonalEdgeStyle;rounded=0;orthogonalLoop=1;jettySize=auto;html=1;entryX=0;entryY=0.5;entryDx=0;entryDy=0;" edge="1" parent="WIyWlLk6GJQsqaUBKTNV-1" source="MVGdtqlllUrGUKuWpan5-21" target="MVGdtqlllUrGUKuWpan5-7">
          <mxGeometry relative="1" as="geometry" />
        </mxCell>
        <mxCell id="MVGdtqlllUrGUKuWpan5-21" value="I++" style="rounded=0;whiteSpace=wrap;html=1;" vertex="1" parent="WIyWlLk6GJQsqaUBKTNV-1">
          <mxGeometry x="180" y="355" width="120" height="60" as="geometry" />
        </mxCell>
        <mxCell id="MVGdtqlllUrGUKuWpan5-22" style="edgeStyle=orthogonalEdgeStyle;rounded=0;orthogonalLoop=1;jettySize=auto;html=1;entryX=1;entryY=0.5;entryDx=0;entryDy=0;" edge="1" parent="WIyWlLk6GJQsqaUBKTNV-1" source="MVGdtqlllUrGUKuWpan5-23" target="MVGdtqlllUrGUKuWpan5-19">
          <mxGeometry relative="1" as="geometry">
            <mxPoint x="870" y="550" as="targetPoint" />
            <Array as="points">
              <mxPoint x="910" y="650" />
              <mxPoint x="910" y="562" />
            </Array>
          </mxGeometry>
        </mxCell>
        <mxCell id="MVGdtqlllUrGUKuWpan5-23" value="m[i][j] = &#39; &#39;" style="rounded=0;whiteSpace=wrap;html=1;" vertex="1" parent="WIyWlLk6GJQsqaUBKTNV-1">
          <mxGeometry x="680" y="620" width="120" height="60" as="geometry" />
        </mxCell>
        <mxCell id="MVGdtqlllUrGUKuWpan5-72" style="edgeStyle=orthogonalEdgeStyle;rounded=0;orthogonalLoop=1;jettySize=auto;html=1;entryX=0.5;entryY=0;entryDx=0;entryDy=0;" edge="1" parent="WIyWlLk6GJQsqaUBKTNV-1" source="MVGdtqlllUrGUKuWpan5-60" target="MVGdtqlllUrGUKuWpan5-69">
          <mxGeometry relative="1" as="geometry" />
        </mxCell>
        <mxCell id="MVGdtqlllUrGUKuWpan5-60" value="i = 0" style="rounded=0;whiteSpace=wrap;html=1;" vertex="1" parent="WIyWlLk6GJQsqaUBKTNV-1">
          <mxGeometry x="354" y="740" width="120" height="60" as="geometry" />
        </mxCell>
        <mxCell id="MVGdtqlllUrGUKuWpan5-68" style="edgeStyle=orthogonalEdgeStyle;rounded=0;orthogonalLoop=1;jettySize=auto;html=1;entryX=0;entryY=0.5;entryDx=0;entryDy=0;" edge="1" parent="WIyWlLk6GJQsqaUBKTNV-1" source="MVGdtqlllUrGUKuWpan5-61" target="MVGdtqlllUrGUKuWpan5-67">
          <mxGeometry relative="1" as="geometry" />
        </mxCell>
        <mxCell id="MVGdtqlllUrGUKuWpan5-75" value="V" style="edgeStyle=orthogonalEdgeStyle;rounded=0;orthogonalLoop=1;jettySize=auto;html=1;" edge="1" parent="WIyWlLk6GJQsqaUBKTNV-1" source="MVGdtqlllUrGUKuWpan5-61" target="MVGdtqlllUrGUKuWpan5-67">
          <mxGeometry relative="1" as="geometry" />
        </mxCell>
        <mxCell id="MVGdtqlllUrGUKuWpan5-81" style="edgeStyle=orthogonalEdgeStyle;rounded=0;orthogonalLoop=1;jettySize=auto;html=1;" edge="1" parent="WIyWlLk6GJQsqaUBKTNV-1" source="MVGdtqlllUrGUKuWpan5-61" target="MVGdtqlllUrGUKuWpan5-76">
          <mxGeometry relative="1" as="geometry" />
        </mxCell>
        <mxCell id="MVGdtqlllUrGUKuWpan5-61" value="i&amp;lt;4" style="rhombus;whiteSpace=wrap;html=1;rounded=0;" vertex="1" parent="WIyWlLk6GJQsqaUBKTNV-1">
          <mxGeometry x="374" y="950" width="80" height="80" as="geometry" />
        </mxCell>
        <mxCell id="MVGdtqlllUrGUKuWpan5-79" style="edgeStyle=orthogonalEdgeStyle;rounded=0;orthogonalLoop=1;jettySize=auto;html=1;entryX=0.5;entryY=1;entryDx=0;entryDy=0;" edge="1" parent="WIyWlLk6GJQsqaUBKTNV-1" source="MVGdtqlllUrGUKuWpan5-67" target="MVGdtqlllUrGUKuWpan5-77">
          <mxGeometry relative="1" as="geometry">
            <Array as="points">
              <mxPoint x="570" y="950" />
              <mxPoint x="570" y="950" />
            </Array>
          </mxGeometry>
        </mxCell>
        <mxCell id="MVGdtqlllUrGUKuWpan5-67" value="m[i][i] = &#39;*&#39;" style="rounded=0;whiteSpace=wrap;html=1;" vertex="1" parent="WIyWlLk6GJQsqaUBKTNV-1">
          <mxGeometry x="537.5" y="960" width="120" height="60" as="geometry" />
        </mxCell>
        <mxCell id="MVGdtqlllUrGUKuWpan5-73" style="edgeStyle=orthogonalEdgeStyle;rounded=0;orthogonalLoop=1;jettySize=auto;html=1;" edge="1" parent="WIyWlLk6GJQsqaUBKTNV-1" source="MVGdtqlllUrGUKuWpan5-69" target="MVGdtqlllUrGUKuWpan5-61">
          <mxGeometry relative="1" as="geometry" />
        </mxCell>
        <mxCell id="MVGdtqlllUrGUKuWpan5-69" value="" style="ellipse;whiteSpace=wrap;html=1;aspect=fixed;" vertex="1" parent="WIyWlLk6GJQsqaUBKTNV-1">
          <mxGeometry x="399" y="850" width="30" height="30" as="geometry" />
        </mxCell>
        <mxCell id="MVGdtqlllUrGUKuWpan5-83" style="edgeStyle=orthogonalEdgeStyle;rounded=0;orthogonalLoop=1;jettySize=auto;html=1;" edge="1" parent="WIyWlLk6GJQsqaUBKTNV-1" source="MVGdtqlllUrGUKuWpan5-76" target="MVGdtqlllUrGUKuWpan5-82">
          <mxGeometry relative="1" as="geometry" />
        </mxCell>
        <mxCell id="MVGdtqlllUrGUKuWpan5-76" value="m[i][3] = &#39;*&#39;" style="rounded=0;whiteSpace=wrap;html=1;" vertex="1" parent="WIyWlLk6GJQsqaUBKTNV-1">
          <mxGeometry x="354" y="1080" width="120" height="60" as="geometry" />
        </mxCell>
        <mxCell id="MVGdtqlllUrGUKuWpan5-80" style="edgeStyle=orthogonalEdgeStyle;rounded=0;orthogonalLoop=1;jettySize=auto;html=1;entryX=1;entryY=0.5;entryDx=0;entryDy=0;" edge="1" parent="WIyWlLk6GJQsqaUBKTNV-1" source="MVGdtqlllUrGUKuWpan5-77" target="MVGdtqlllUrGUKuWpan5-69">
          <mxGeometry relative="1" as="geometry" />
        </mxCell>
        <mxCell id="MVGdtqlllUrGUKuWpan5-77" value="i++" style="rounded=0;whiteSpace=wrap;html=1;" vertex="1" parent="WIyWlLk6GJQsqaUBKTNV-1">
          <mxGeometry x="510" y="835" width="120" height="60" as="geometry" />
        </mxCell>
        <mxCell id="MVGdtqlllUrGUKuWpan5-82" value="FIN" style="rounded=1;whiteSpace=wrap;html=1;arcSize=50;" vertex="1" parent="WIyWlLk6GJQsqaUBKTNV-1">
          <mxGeometry x="344" y="1200" width="140" height="60" as="geometry" />
        </mxCell>
      </root>
    </mxGraphModel>
  </diagram>
</mxfile>
